<svg width="1024" height="1024" xmlns="http://www.w3.org/2000/svg"><path fill="#646ecb" d="M0 0h1024v1024H0z"/><g aria-label="AyaExpTech" style="-inkscape-font-specification:Ubuntu" font-size="100" font-family="Ubuntu" letter-spacing=".2" fill="#fff" stroke-width="2.538"><path d="M290.6 443.5q-1.7-4.5-3.2-8.8-1.5-4.4-3.1-8.9h-31.4l-6.3 17.7h-10.1q4-11 7.5-20.3 3.5-9.4 6.8-17.8 3.4-8.4 6.7-16 3.3-7.7 6.9-15.2h8.9q3.6 7.5 6.9 15.2 3.3 7.6 6.6 16 3.4 8.4 6.9 17.8 3.5 9.3 7.5 20.3zm-9.1-25.7q-3.2-8.7-6.4-16.8-3.1-8.2-6.5-15.7-3.5 7.5-6.7 15.7-3.1 8.1-6.2 16.8zM304.06 453.2q1.1.5 2.8.9 1.8.5 3.5.5 5.5 0 8.6-2.5 3.1-2.4 5.6-7.9-6.3-12-11.8-25.4-5.4-13.5-9-27.3h10q1.1 4.5 2.6 9.7 1.6 5.2 3.5 10.7 1.9 5.5 4.1 11 2.2 5.5 4.6 10.6 3.8-10.5 6.6-20.8t5.3-21.2h9.6q-3.6 14.7-8 28.3-4.4 13.5-9.5 25.3-2 4.5-4.2 7.7-2.1 3.3-4.7 5.4-2.6 2.1-5.9 3.1-3.2 1-7.3 1-1.1 0-2.3-.2-1.2-.1-2.4-.4-1.1-.2-2.1-.5-.9-.3-1.3-.5zM377.45 436.8q3.3 0 5.8-.1 2.6-.2 4.3-.6v-15.5q-1-.5-3.3-.8-2.2-.4-5.4-.4-2.1 0-4.5.3-2.3.3-4.3 1.3-1.9.9-3.2 2.6-1.3 1.6-1.3 4.3 0 5 3.2 7 3.2 1.9 8.7 1.9zm-.8-46.6q5.6 0 9.4 1.5 3.9 1.4 6.2 4.1 2.4 2.6 3.4 6.3 1 3.6 1 8v32.5q-1.2.2-3.4.6-2.1.3-4.8.6-2.7.3-5.9.5-3.1.3-6.2.3-4.4 0-8.1-.9-3.7-.9-6.4-2.8-2.7-2-4.2-5.2t-1.5-7.7q0-4.3 1.7-7.4 1.8-3.1 4.8-5t7-2.8q4-.9 8.4-.9 1.4 0 2.9.2 1.5.1 2.8.4 1.4.2 2.4.4t1.4.3v-2.6q0-2.3-.5-4.5-.5-2.3-1.8-4-1.3-1.8-3.6-2.8-2.2-1.1-5.8-1.1-4.6 0-8.1.7-3.4.6-5.1 1.3l-1.1-7.7q1.8-.8 6-1.5 4.2-.8 9.1-.8zM412.63 443.5v-69.3h42.3v8.3h-32.6v20.6h29v8.1h-29v24h35.1v8.3zM499.82 443.5q-1.1-2.2-2.7-4.9t-3.5-5.5q-1.9-2.9-3.9-5.7-2-2.8-3.9-5.3-1.9 2.5-3.9 5.4-2 2.8-3.9 5.7-1.8 2.8-3.4 5.5-1.6 2.7-2.7 4.8h-9.6q3.5-6.8 8.3-13.8 4.9-7.1 9.7-13.5l-17.2-24.7h10.5l12.4 18.2 12.5-18.2h9.9l-16.8 24.1q4.8 6.5 9.8 13.8 5.1 7.2 8.6 14.1zM556.56 417.6q0-9.1-4.5-14t-12-4.9q-4.2 0-6.6.3-2.3.3-3.7.7v32.8q1.7 1.4 4.9 2.7 3.2 1.3 7 1.3 4 0 6.8-1.4 2.9-1.5 4.7-4 1.8-2.6 2.6-6 .8-3.5.8-7.5zm9.7 0q0 5.9-1.6 10.9-1.5 5-4.5 8.6-3 3.6-7.4 5.6-4.3 2-9.9 2-4.5 0-8-1.2-3.4-1.2-5.1-2.3V462h-9.3v-68.9q3.3-.8 8.2-1.7 5-1 11.5-1 6 0 10.8 1.9 4.8 1.9 8.2 5.4 3.4 3.5 5.2 8.6 1.9 5 1.9 11.3zM625.97 374.2v8.4h-21.8v60.9h-9.7v-60.9h-21.8v-8.4zM633.56 417.6q0-6.9 2-12 2-5.2 5.3-8.6 3.3-3.4 7.6-5.1 4.3-1.7 8.8-1.7 10.5 0 16.1 6.6 5.6 6.5 5.6 19.9v1.6q0 .9-.1 1.7h-35.6q.6 8.1 4.7 12.3 4.1 4.2 12.8 4.2 4.9 0 8.2-.8 3.4-.9 5.1-1.7l1.3 7.8q-1.7.9-6 1.9-4.2 1-9.6 1-6.8 0-11.8-2-4.9-2.1-8.1-5.7-3.2-3.6-4.8-8.5-1.5-5-1.5-10.9zm35.7-5.1q.1-6.3-3.2-10.3-3.2-4.1-8.9-4.1-3.2 0-5.7 1.3-2.4 1.2-4.1 3.2-1.7 2-2.7 4.6-.9 2.6-1.2 5.3zM714.93 444.7q-6.3 0-11.1-2-4.7-2-8-5.6-3.2-3.6-4.8-8.5-1.6-5-1.6-11t1.7-11q1.8-5 5-8.6 3.2-3.7 7.8-5.7 4.7-2.1 10.4-2.1 3.5 0 7 .6t6.7 1.9l-2.1 7.9q-2.1-1-4.9-1.6-2.7-.6-5.8-.6-7.8 0-12 4.9-4.1 4.9-4.1 14.3 0 4.2.9 7.7 1 3.5 3 6 2.1 2.5 5.3 3.9 3.2 1.3 7.8 1.3 3.7 0 6.7-.7t4.7-1.5l1.3 7.8q-.8.5-2.3 1-1.5.4-3.4.7-1.9.4-4.1.6-2.1.3-4.1.3zM739.7 443.5v-76l9.3-1.6v26.6q2.6-1 5.5-1.5 3-.6 5.9-.6 6.2 0 10.3 1.8 4.1 1.7 6.5 4.9 2.5 3.1 3.5 7.5t1 9.7v29.2h-9.3v-27.2q0-4.8-.7-8.2-.6-3.4-2.1-5.5t-4-3q-2.5-1-6.2-1-1.5 0-3.1.2t-3.1.5q-1.4.2-2.6.5-1.1.3-1.6.5v43.2z"/></g><g aria-label="&lt;/&gt;" style="line-height:1.25;-inkscape-font-specification:'Ubuntu Light'" font-weight="300" font-size="84" font-family="Ubuntu" letter-spacing=".38" fill="#fff"><path d="M460.212 680.58l31.668 13.272-1.68 4.62-36.372-15.456v-4.872l36.372-15.456 1.68 4.62zM500.956 720.312h-5.544L524.056 639h5.376zM532.12 667.308l1.68-4.62 36.372 15.456v4.872L533.8 698.472l-1.68-4.62 31.668-13.272z"/></g><path fill="#fff" d="M256 506.015h512v12H256z"/><path fill="none" stroke="#fff" stroke-width="12.001" d="M25.474 512L512 25.475 998.525 512 512 998.526z"/><circle cx="512" cy="111.855" r="20" fill="#fff"/><circle cx="512" cy="-912.145" r="20" transform="scale(1 -1)" fill="#fff"/><g stroke="#fff" fill="none" stroke-width="9.969"><path d="M435.633 578.588c-9.74 0-17.561 7.803-17.58 17.496l-.026 13.437V746.26h187.946V609.52l-.026-13.437c-.019-9.693-7.84-17.496-17.58-17.496zM418.027 609.522h187.946"/></g></svg>